<?xml version="1.0" encoding="UTF-8"?>
<svg id="Layer_1" xmlns="http://www.w3.org/2000/svg" viewBox="0 0 128.12 78.82">
  <defs>
    <style>
      .cls-1 {
        fill: #56332b;
      }

      .cls-2 {
        fill: #efcca3;
      }

      .cls-3 {
        fill: #fff;
      }

      .cls-4 {
        fill: #ccac8d;
      }

      .cls-5 {
        fill: #331712;
      }

      .cls-6 {
        fill: #7f4a41;
      }

      .cls-7 {
        fill: #442823;
      }
    </style>
  </defs>
  <path class="cls-2" d="M107.21,24.6c-.2-4.4.4-8.3-1.6-11.6C100.81,4.8,88.81,0,64.81,0v.7h-.5.5v-.7C40.81,0,28.21,4.8,23.41,13.1c-1.9,3.4-1.7,7.2-2,11.6-.2,3.5-1.8,7.2-1.1,11.2.8,5.2,1.1,10.4,1.9,15.2.6,3.9,6,7.2,6.5,10.9,1.4,10.2,12,14.9,36,14.9v.8h-.6.7v-.8c24,0,34.2-4.7,35.5-14.9.5-3.8,5.5-7,6.1-10.9.8-4.8,1.1-10,1.9-15.2.7-4-.9-7.8-1.1-11.3Z"/>
  <path class="cls-4" d="M64.41,28.2c4.3.1,7.3,2.8,10.1,5.3,3.3,2.9,8.9,4.9,11.2,7.4,2.3,2.5,5.3,5,6.4,8.9s1.4,8.9,1.4,10.2.7,1,2.7,0c4.7-2.3,9.9-8.5,9.9-8.5-.6,3.9-5.7,7.4-6.2,11.1-1.2,10.2-11.1,15.1-35.6,15.1h-.1.6"/>
  <path class="cls-4" d="M80.21,20.4c.9,3.1,4.1,13.6-2.1,10.1,0,0,2.6,1.5,4.2,7.2,1.7,5.7,5.8,6.4,5.8,6.4,0,0,6.7,1.3,11.7-3,4.2-3.6,4.9-10,3.1-14.9-1.8-4.8-5-6.3-9.7-7.3-4.7-1.1-14.1-2-13,1.5Z"/>
  <circle cx="92.11" cy="31.8" r="8.8"/>
  <circle class="cls-3" cx="89.81" cy="27.9" r="2.3"/>
  <path class="cls-2" d="M78.71,31.4s7.9,5.4,12.2,10.7c4.3,5.3,4.2,6.3,4.2,6.3l-3.1,1.4s-4.4-8.3-9.8-11.4c-5.5-3.1-6.1-5.7-6.1-5.7l2.6-1.3Z"/>
  <path class="cls-4" d="M64.71,28.2c-4.3.1-7.5,2.8-10.4,5.3-3.3,2.9-9.1,4.9-11.4,7.4-2.3,2.5-5.4,5-6.5,8.9s-1.5,8.9-1.5,10.2.2,1.4-2.7,0c-4.7-2.2-9.9-8.5-9.9-8.5.6,3.9,5.7,7.4,6.2,11.1,1.4,10.2,11.3,15.1,35.8,15.1h.5"/>
  <path class="cls-1" d="M87.91,45.1c-4.8-5.9-12.5-11.4-23.2-11.4h-.1c-10.7,0-18.4,5.5-23.2,11.4-5,6.1-4.6,8.5-4.6,14.3,0,21,7.4,15,12.3,17.6,5,2.5,10.2,1.7,15.5,1.7h.1c5.4,0,10.5.7,15.5-1.8,4.9-2.5,12.3,3.7,12.3-17.3.1-5.8.4-8.4-4.6-14.5Z"/>
  <path class="cls-7" d="M64.21,38.9s-.7,9.7-2.1,11.6l2.6-.6-.5-11Z"/>
  <path class="cls-7" d="M64.91,38.9s.7,9.7,2.1,11.6l-2.6-.6.5-11Z"/>
  <path class="cls-1" d="M56.51,36.6c-1-2.3,2.6-6,8.3-6.1,5.7,0,9.3,3.7,8.3,6.1-1,2.4-4.6,3.1-8.3,3.2-3.6-.1-7.3-.8-8.3-3.2Z"/>
  <path d="M64.81,38.9c0-.4,3.4-.5,5.2-1.7,0,0-3.7,1.2-4.5.7-.8-.4-1-1.6-1-1.6,0,0-.3,1.2-.9,1.6-.7.4-4.9-.7-4.9-.7,0,0,5.6,1.4,5.6,1.7s-.1,1.3-.1,2c0,2.5,0,8.7.4,9.2.6.9.4-6.7.4-9.2-.1-.8-.1-1.6-.2-2Z"/>
  <path class="cls-6" d="M65.01,52.3c1.7,0,4.7,1.2,7.4,3.1-2.6-2.9-5.7-4.9-7.4-4.9-1.8,0-5.6,2.2-8.3,5.4,2.8-2.2,6.4-3.6,8.3-3.6Z"/>
  <path class="cls-7" d="M64.31,70c-3.8,0-7.5-1.2-10.9-2.1-.7-.2-1.4.3-2.1.1-6.3-2-11.4-5.4-14.5-9.7v1c0,21,7.4,15.1,12.3,17.6,5,2.5,10.2,1.7,15.5,1.7h.1c5.4,0,10.5.7,15.5-1.8,4.9-2.5,12.3,3.6,12.3-17.4,0-.8,0-1.6.1-2.3-2.9,4.7-8.2,8.4-14.8,10.6-.6.2-2-.3-2.6-.2-3.6,1.2-6.8,2.5-10.9,2.5Z"/>
  <path class="cls-7" d="M54.81,58.7s-2.5,7.5-.8,10.8l-2.3-1s1.7-7.6,3.1-9.8ZM74.61,58.7s2.5,7.5.8,10.8l2.3-1s-1.8-7.6-3.1-9.8Z"/>
  <path class="cls-4" d="M48.41,20.4c-.9,3.1-4.1,13.6,2.1,10.1,0,0-2.6,1.5-4.2,7.2s-5.8,6.4-5.8,6.4c0,0-6.7,1.3-11.7-3-4.2-3.6-4.9-10-3.1-14.9s5-6.3,9.7-7.3c4.7-1.1,14-2,13,1.5Z"/>
  <path d="M64.71,50.5c2.7,0,11.1,5.8,11.2,12.9v-.4c0-7.4-6.8-13.3-11.2-13.3s-11.2,6-11.2,13.3v.4c.1-7.1,8.5-12.9,11.2-12.9Z"/>
  <ellipse class="cls-5" cx="66.52" cy="35.2" rx=".8" ry="1.5" transform="translate(-6.68 17.73) rotate(-14.47)"/>
  <ellipse class="cls-5" cx="62.2" cy="35.21" rx="1.5" ry=".8" transform="translate(10.14 84.18) rotate(-72.76)"/>
  <circle cx="37.01" cy="31.8" r="8.8"/>
  <circle class="cls-3" cx="39.31" cy="27.9" r="2.3"/>
  <path class="cls-6" d="M67.31,31.9c0-.1-2.3,1-2.9,1.1-.6-.1-2.9-1.2-2.9-1.1h5.8Z"/>
  <path class="cls-2" d="M49.81,31.4s-7.9,5.4-12.2,10.7c-4.3,5.3-4.2,6.3-4.2,6.3l3.1,1.4s4.4-8.3,9.8-11.4,6.1-5.7,6.1-5.7l-2.6-1.3Z"/>
  <path class="cls-4" d="M32.51,15.4s-2.7,7.4-8.7,10.5c0,0,9.4-1.1,8.7-10.5ZM95.61,15.4s2.7,7.4,8.7,10.5c0,0-9.4-1.1-8.7-10.5ZM78.51,29.2s-5.9-6.2-13.8-6.4h.2c-8,.2-13.8,6.4-13.8,6.4,6.9-4.8,12.8-4.7,13.8-4.7-.1,0,6.7-.1,13.6,4.7ZM71.61,16.2s-3-4.2-7-4.3h.2c-3,.1-6.9,4.3-6.9,4.3,3.4-3.3,6.9-3.2,6.9-3.2,0,0,3.3-.1,6.8,3.2ZM37.01,46.9s-4.7,2.3-8.1.9h-.1c-3-1.7-4.5-6.8-4.5-6.8,0,0,3,9,12.7,5.9ZM91.81,46.9s4.7,2.3,8.1.9c4-1.7,4.6-6.8,4.6-6.8,0,0-3,9-12.7,5.9Z"/>
  <path class="cls-4" d="M42.41,14.9c2.6-.5,6.9-.6,10.3.5,4.3,1.5.8,7,1.7,7.3s2.1-3.8,10.1-3.4c8.1.4,9,4,10.1,3.4s-1.1-10,11-7.8c0,0-12.7-3.4-12.1,5.8,0,0-7.3-5.6-17.5-.6.1,0,2.7-8.6-13.6-5.2ZM86.71,14.9c.2,0,.3.1.4.1s-.1-.1-.4-.1ZM38.91,2.6s-10.8,13.6-12.4,18.8c-1.6,5.3-2.8,27-4.2,30.1l-5-21.4L26.51,7.8s12.4-5.2,12.4-5.2ZM89.71,2.6s10.8,13.6,12.4,18.8c1.6,5.3,2.8,27,4.2,30.1l5-21.4-9.2-22.3s-12.4-5.2-12.4-5.2Z"/>
  <path class="cls-1" d="M89.21,2.6s11.6,9.7,15,20.9,2,24.8,4.6,26.5c3.7,2.4,7.9-11.9,9.3-13.4,2.2-2.4,9.5-8.5,10-9.6s-14.8-17.8-21.5-21.1c-8.1-3.8-18.1-4.1-17.4-3.3Z"/>
  <path class="cls-7" d="M99.11,8.6s13.7,17.5,13.5,39.3l5.5-11.2c-.1,0-4.9-14.3-19-28.1Z"/>
  <path class="cls-1" d="M38.91,2.6s-11.6,9.7-15,20.9-2,24.8-4.6,26.5c-3.7,2.4-7.9-11.9-9.3-13.4C7.81,34.2.51,28.1.01,27c-.5-1.1,14.8-17.8,21.5-21.1,8.1-3.8,18.1-4.1,17.4-3.3Z"/>
  <path class="cls-7" d="M29.01,8.6s-13.7,17.5-13.5,39.3l-5.4-11.2s4.8-14.3,18.9-28.1Z"/>
  <path class="cls-4" d="M21.61,48.3s1,5.4,2.6,7.1.5-1.3.5-1.3c0,0-1.7-.9-1.4-7.8s-1.7,2-1.7,2ZM106.91,48.3s-1,5.4-2.6,7.1-.5-1.3-.5-1.3c0,0,1.7-.9,1.4-7.8s1.7,2,1.7,2Z"/>
  <g>
    <circle class="cls-7" cx="54.31" cy="44.2" r=".8"/>
    <circle class="cls-7" cx="49.71" cy="49" r=".8"/>
    <circle class="cls-7" cx="48.21" cy="44.2" r=".8"/>
  </g>
  <g>
    <circle class="cls-7" cx="73.81" cy="44.2" r=".8"/>
    <circle class="cls-7" cx="78.41" cy="49" r=".8"/>
    <circle class="cls-7" cx="79.91" cy="44.2" r=".8"/>
  </g>
</svg>