<?xml version="1.0" encoding="UTF-8"?>
<svg xmlns="http://www.w3.org/2000/svg" version="1.1" xmlns:cc="http://creativecommons.org/ns#" xmlns:dc="http://purl.org/dc/elements/1.1/" xmlns:inkscape="http://www.inkscape.org/namespaces/inkscape" xmlns:rdf="http://www.w3.org/1999/02/22-rdf-syntax-ns#" xmlns:sodipodi="http://sodipodi.sourceforge.net/DTD/sodipodi-0.dtd" xmlns:svg="http://www.w3.org/2000/svg" viewBox="0 0 361.2 409.6">
  <defs>
    <style>
      .cls-1 {
        fill: #264de4;
      }

      .cls-2 {
        fill: #fff;
      }

      .cls-3 {
        fill: #ebebeb;
      }

      .cls-4 {
        fill: #2965f1;
      }
    </style>
  </defs>
  <!-- Generator: Adobe Illustrator 28.7.0, SVG Export Plug-In . SVG Version: 1.2.0 Build 136)  -->
  <g>
    <g id="svg3476" inkscape:version="0.91 r13725">
      <polygon id="polygon2989" class="cls-1" points="361.2 0 328.3 368.6 180.4 409.6 32.9 368.7 0 0 361.2 0"/>
      <polygon id="polygon2991" class="cls-4" points="300.1 345.1 328.2 30.1 180.6 30.1 180.6 378.3 300.1 345.1"/>
      <polygon id="polygon2993" class="cls-3" points="75.3 166.9 79.4 212.1 180.6 212.1 180.6 166.9 75.3 166.9"/>
      <polygon id="polygon2995" class="cls-3" points="180.6 75.4 180.4 75.4 67.2 75.4 71.3 120.6 180.6 120.6 180.6 75.4"/>
      <polygon id="polygon3005" class="cls-2" points="236.1 212.1 230.9 270.7 180.4 284.3 180.4 331.4 273.1 305.7 273.8 298 284.4 179 285.5 166.9 293.7 75.4 180.4 75.4 180.4 120.6 244.1 120.6 240 166.9 180.4 166.9 180.4 212.1 236.1 212.1"/>
      <polygon id="polygon2997" class="cls-3" points="180.6 331.3 180.6 284.3 180.4 284.4 130 270.8 126.8 234.7 102.3 234.7 81.4 234.7 87.8 305.7 180.4 331.4 180.6 331.3"/>
    </g>
  </g>
</svg>