<?xml version="1.0" encoding="UTF-8"?>
<svg xmlns="http://www.w3.org/2000/svg" version="1.1" viewBox="0 0 91.9 91.9">
  <defs>
    <style>
      .cls-1 {
        fill: #f05133;
      }
    </style>
  </defs>
  <!-- Generator: Adobe Illustrator 28.7.0, SVG Export Plug-In . SVG Version: 1.2.0 Build 136)  -->
  <g>
    <g id="_Слой_1" data-name="Слой_1">
      <path class="cls-1" d="M90.2,41.9L50,1.7c-2.3-2.3-6.1-2.3-8.4,0l-8.3,8.3,10.6,10.6c2.5-.8,5.3-.3,7.2,1.7,2,2,2.5,4.8,1.7,7.3l10.2,10.2c2.5-.8,5.3-.3,7.3,1.7,2.8,2.8,2.8,7.2,0,10-2.8,2.8-7.2,2.8-10,0-2.1-2.1-2.6-5.1-1.5-7.7l-9.5-9.5v25c.7.3,1.3.8,1.9,1.3,2.8,2.8,2.8,7.2,0,10-2.8,2.7-7.2,2.7-10,0-2.8-2.8-2.8-7.2,0-10,.7-.7,1.5-1.2,2.3-1.5v-25.2c-.8-.3-1.6-.9-2.3-1.5-2.1-2.1-2.6-5.1-1.5-7.7l-10.4-10.4L1.7,41.7c-2.3,2.3-2.3,6.1,0,8.4l40.1,40.1c2.3,2.3,6.1,2.3,8.4,0l39.9-39.9c2.3-2.3,2.3-6.1,0-8.4Z"/>
    </g>
  </g>
</svg>