<?xml version="1.0" encoding="UTF-8"?>
<svg xmlns="http://www.w3.org/2000/svg" version="1.1" viewBox="0 0 226.4 421.1">
  <defs>
    <style>
      .cls-1 {
        fill: #5382a1;
      }

      .cls-2 {
        fill: #f8981d;
      }
    </style>
  </defs>
  <!-- Generator: Adobe Illustrator 28.7.0, SVG Export Plug-In . SVG Version: 1.2.0 Build 136)  -->
  <g>
    <g id="Layer_1">
      <path class="cls-1" d="M216.9,332.1h-1.6v-.9h4.3v.9h-1.6v4.4h-1.1v-4.4ZM225.4,332.3h0l-1.6,4.2h-.7l-1.6-4.2h0v4.2h-1v-5.3h1.5l1.4,3.8,1.4-3.8h1.5v5.3h-1v-4.2h0Z"/>
      <path class="cls-1" d="M74.9,223.4s-11,6.4,7.9,8.6c22.9,2.6,34.6,2.2,59.8-2.5,0,0,6.6,4.2,15.9,7.8-56.5,24.2-128-1.4-83.6-13.8"/>
      <path class="cls-1" d="M67.9,191.7s-12.4,9.2,6.5,11.1c24.4,2.5,43.8,2.7,77.2-3.7,0,0,4.6,4.7,11.9,7.2-68.4,20-144.5,1.6-95.6-14.7"/>
      <path class="cls-2" d="M126.2,138.1c13.9,16-3.7,30.5-3.7,30.5,0,0,35.4-18.3,19.1-41.1-15.2-21.3-26.8-31.9,36.2-68.5,0,0-98.9,24.7-51.7,79.1"/>
      <path class="cls-1" d="M201,246.7s8.2,6.7-9,11.9c-32.6,9.9-135.8,12.9-164.5.4-10.3-4.5,9-10.7,15.1-12,6.3-1.4,10-1.1,10-1.1-11.5-8.1-74.1,15.9-31.8,22.7,115.3,18.7,210.2-8.4,180.2-21.9"/>
      <path class="cls-1" d="M80.2,159s-52.5,12.5-18.6,17c14.3,1.9,42.9,1.5,69.4-.7,21.7-1.8,43.5-5.7,43.5-5.7,0,0-7.7,3.3-13.2,7.1-53.3,14-156.3,7.5-126.6-6.8,25.1-12.1,45.5-10.7,45.5-10.7"/>
      <path class="cls-1" d="M174.3,211.6c54.2-28.2,29.1-55.2,11.6-51.6-4.3.9-6.2,1.7-6.2,1.7,0,0,1.6-2.5,4.6-3.6,34.6-12.2,61.2,35.9-11.2,54.9,0,0,.8-.7,1.1-1.4"/>
      <path class="cls-2" d="M141.7,0s30,30-28.5,76.2c-46.9,37-10.7,58.1,0,82.3-27.4-24.7-47.5-46.4-34-66.7C99,62.1,153.8,47.7,141.7,0"/>
      <path class="cls-1" d="M85.5,287.9c52,3.3,131.9-1.8,133.8-26.5,0,0-3.6,9.3-43,16.7-44.4,8.4-99.2,7.4-131.6,2,0,0,6.6,5.5,40.8,7.7"/>
      <path class="cls-1" d="M77,382c-4.9,4.3-10.1,6.6-14.7,6.6-6.6,0-10.2-4-10.2-10.4s3.8-12,19.3-12h5.7v15.7M90.5,397.2v-47.3c0-12.1-6.9-20.1-23.5-20.1s-18.2,2.4-25.1,5.4l2,8.4c5.4-2,12.5-3.9,19.4-3.9s13.7,3.9,13.7,11.8v6h-4.8c-23.2,0-33.7,9-33.7,22.6s6.9,18.3,19.9,18.3,14.6-3.5,20.4-8.5l1.1,7.2h10.6Z"/>
      <path class="cls-1" d="M135.7,397.2h-16.9l-20.3-66.1h14.7l12.6,40.6,2.8,12.2c6.4-17.7,10.9-35.6,13.1-52.9h14.3c-3.8,21.8-10.8,45.7-20.4,66.1"/>
      <path class="cls-1" d="M200.5,382c-4.9,4.3-10.1,6.6-14.8,6.6-6.6,0-10.2-4-10.2-10.4s3.9-12,19.3-12h5.7v15.7M214,397.2v-47.3c0-12.1-6.9-20.1-23.5-20.1s-18.2,2.4-25.1,5.4l2,8.4c5.4-2,12.5-3.9,19.4-3.9s13.7,3.9,13.7,11.8v6h-4.8c-23.3,0-33.7,9-33.7,22.6s6.9,18.3,19.9,18.3,14.6-3.5,20.5-8.5l1.1,7.2h10.6Z"/>
      <path class="cls-1" d="M23.6,408.5c-3.9,5.6-10.1,10.1-16.9,12.6l-6.7-7.9c5.2-2.7,9.7-7,11.7-11,1.8-3.6,2.5-8.2,2.5-19.2v-75.5h14.4v74.5c0,14.7-1.2,20.6-5,26.4"/>
    </g>
  </g>
</svg>