<?xml version="1.0" encoding="UTF-8"?>
<svg xmlns="http://www.w3.org/2000/svg" version="1.1" viewBox="0 0 100 100">
  <defs>
    <style>
      .cls-1 {
        fill: #fff;
      }

      .cls-2 {
        fill: #007acc;
      }
    </style>
  </defs>
  <!-- Generator: Adobe Illustrator 28.7.0, SVG Export Plug-In . SVG Version: 1.2.0 Build 136)  -->
  <g>
    <g id="_Слой_1" data-name="Слой_1">
      <path class="cls-2" d="M0,50v50h100V0H0v50Z"/>
      <path class="cls-1" d="M22.1,50.3v4.1s6.5,0,6.5,0h6.5v37h9.2v-37h13v-4c0-2.2,0-4.1-.1-4.1,0,0-8,0-17.6,0h-17.5s0,4.1,0,4.1Z"/>
      <path class="cls-1" d="M80.7,46.1c2.5.6,4.5,1.8,6.3,3.6.9,1,2.3,2.8,2.4,3.2,0,.1-4.3,3-7,4.7,0,0-.5-.3-.9-1-1.3-1.9-2.6-2.7-4.7-2.8-3-.2-5,1.4-5,4,0,.8.1,1.2.4,1.9.7,1.4,1.9,2.2,5.8,3.9,7.2,3.1,10.2,5.1,12.1,8,2.1,3.2,2.6,8.4,1.2,12.2-1.6,4.2-5.5,7-11.1,7.9-1.7.3-5.8.3-7.6,0-4-.7-7.8-2.7-10.2-5.3-.9-1-2.7-3.7-2.6-3.9,0,0,.5-.3.9-.6.4-.3,2.1-1.2,3.7-2.1l2.9-1.7.6.9c.8,1.3,2.7,3,3.8,3.6,3.2,1.7,7.6,1.4,9.7-.5.9-.8,1.3-1.7,1.3-3s-.1-1.7-.7-2.5c-.8-1.1-2.4-2-6.9-4-5.2-2.2-7.4-3.6-9.4-5.8-1.2-1.3-2.3-3.3-2.7-5-.4-1.4-.5-5-.2-6.4,1.1-5,4.8-8.5,10.3-9.5,1.8-.3,5.9-.2,7.6.2Z"/>
    </g>
  </g>
</svg>