<?xml version="1.0" encoding="UTF-8"?>
<svg xmlns="http://www.w3.org/2000/svg" version="1.1" viewBox="0 0 1875.8 1875.3">
  <defs>
    <style>
      .cls-1 {
        fill: #4fc08d;
      }

      .cls-2 {
        fill: #35495e;
      }

      .cls-3 {
        fill: none;
      }
    </style>
  </defs>
  <!-- Generator: Adobe Illustrator 28.7.0, SVG Export Plug-In . SVG Version: 1.2.0 Build 136)  -->
  <g>
    <g id="_Слой_1" data-name="Слой_1">
      <path class="cls-3" d="M1076.8,2187.6H-312V-312.4h2500v2500h-1111.2M1124.6,377.6c-1,1.5-2.1,2.9-2.9,4.4-59.9,119.7-119.8,239.4-179.7,359.1-1.3,2.5-2.6,5-4.1,8-1.5-3.1-2.5-5.5-3.7-7.8-59.5-119-119.1-238-178.7-357-1.3-2.5-3.2-4.6-4.9-7.9-1-2.9-1.8-6-3.1-8.7-60.2-120.5-120.5-241-180.6-361.5C564.6,1.8,562.2,0,557,0,373.9.1,190.8.1,7.8.1,5.6.1,3.4.3.3.5c1.5,3.2,2.6,5.7,3.8,8,144.1,288.1,288.1,576.3,432.2,864.4,10.8,21.5,21.3,43.2,31.7,65.7-.3.6-.5,1.1-.8,1.7-148.5,296.9-296.9,593.8-445.4,890.7-7.2,14.4-14.3,28.9-21.9,44.2h6.9c183.7,0,367.5,0,551.2.1,4.4,0,6.4-1.5,8.3-5.3,71-142.7,142.1-285.4,213.2-428,16.1-32.2,32.5-64.2,48.6-96.4,18.3-36.5,36.6-73.2,54.9-109.7,17-34,34.1-68,51.1-102,1.1-2.1,2.2-4.2,3.8-7.1,1.4,2.5,2.5,4.2,3.3,5.9,61.9,123.9,123.7,247.8,185.6,371.7,61,122,122.1,243.9,183,365.9,1.7,3.5,3.5,5,7.8,5,183.9-.1,367.9-.1,551.8-.1,1.9,0,3.9-.2,6.3-.4-1.3-2.7-2.2-4.7-3.2-6.7-144.2-288.5-288.5-576.9-432.7-865.4-10.8-21.6-21.4-43.3-31.9-65.8,1.1-2.3,2.1-4.5,3.2-6.8,153.7-307.4,307.4-614.8,461.1-922.2,1.1-2.2,2-4.4,3.5-7.7h-176.4c-126.6,0-253.3,0-379.9-.1-5.3,0-8,1.5-10.4,6.4-60.5,121.3-121.1,242.5-181.6,363.7-1.1,2.2-1.4,4.9-2.9,7.5h0Z"/>
      <path class="cls-1" d="M1407.8,937.7c10.7,21.7,21.3,43.3,32.1,64.9,144.2,288.5,288.5,576.9,432.7,865.4,1,2,1.9,4,3.2,6.7-2.5.2-4.4.4-6.3.4-183.9,0-367.9,0-551.8.1-4.3,0-6-1.5-7.8-5-61-122-122.1-243.9-183-365.9-61.9-123.9-123.7-247.8-185.6-371.7-.9-1.8-1.9-3.4-3.4-5.9-1.5,2.9-2.7,5-3.8,7.1-17,34-34.1,68-51.1,102-18.3,36.6-36.5,73.2-54.9,109.7-16.1,32.2-32.6,64.2-48.6,96.4-71.1,142.6-142.2,285.3-213.2,428-1.9,3.7-3.8,5.3-8.3,5.3-183.7-.1-367.5-.1-551.2-.1H0c7.6-15.3,14.7-29.8,21.9-44.2,148.5-296.9,296.9-593.8,445.4-890.7.3-.5.5-1.1,1.2-2.3,1.8-3,3.3-5.3,4.5-7.7,90.9-181.7,181.7-363.4,272.6-545.1,1.4-2.7,3.3-5.1,5-7.7,1.6,2.3,3.6,4.4,4.9,6.9,59.6,119,119.1,238,178.7,357,1.2,2.3,2.2,4.7,3.7,7.8,1.6-3,2.9-5.5,4.1-8,59.9-119.7,119.8-239.4,179.7-359.1.8-1.6,1.9-3,3.7-4.4,2.3,2.6,3.9,5,5.2,7.6,90.8,181.5,181.6,363.1,272.4,544.6,1.4,2.7,3.2,5.2,4.9,7.8h0Z"/>
      <path class="cls-2" d="M1407.9,937.2c-1.7-2.1-3.6-4.6-5-7.4-90.8-181.5-181.6-363-272.4-544.6-1.3-2.6-2.9-5-4.8-7.7.3-2.6.5-5.3,1.7-7.5,60.5-121.2,121.2-242.4,181.6-363.7,2.4-4.8,5.1-6.4,10.4-6.4,126.6.2,253.3.1,379.9.1h176.4c-1.5,3.3-2.4,5.5-3.5,7.7-153.7,307.4-307.4,614.8-461.1,922.2-1.1,2.2-2.1,4.5-3.3,7.2h0ZM750.6,377c-1.7,3-3.7,5.4-5,8.2-90.9,181.7-181.7,363.4-272.6,545.1-1.2,2.4-2.7,4.7-4.4,7.2-11-21.4-21.5-43-32.3-64.5C292.3,584.8,148.2,296.6,4.1,8.5,3,6.1,1.9,3.7.3.5,3.4.3,5.6.1,7.8.1,190.8.1,373.9.1,557,0c5.2,0,7.6,1.8,9.8,6.3,60.1,120.5,120.4,241,180.6,361.5,1.4,2.7,2.1,5.8,3.1,9.2h0Z"/>
    </g>
  </g>
</svg>