<?xml version="1.0" encoding="UTF-8"?>
<svg xmlns="http://www.w3.org/2000/svg" version="1.1" viewBox="0 0 987.9 1117.7">
	<defs>
		<style>
			.cls-1 {
				fill: #8ed6fb;
			}

			.cls-2 {
				fill: #fff;
			}

			.cls-3 {
				fill: #1c78c0;
			}
		</style>
	</defs>
	<!-- Generator: Adobe Illustrator 28.7.0, SVG Export Plug-In . SVG Version: 1.2.0 Build 136)  -->
	<g id="svg56">
		<path id="path48" class="cls-2" d="M493.9,0l493.9,279.4v558.9l-493.9,279.4L0,838.3V279.4L493.9,0Z" />
		<path id="path50" class="cls-1" d="M899.7,819l-389.4,220.3v-171.5l242.6-133.5,146.8,84.7ZM926.3,794.9v-460.6l-142.4,82.3v296.1l142.4,82.2ZM86.7,819l389.4,220.3v-171.5l-242.8-133.5-146.6,84.7ZM60,794.9v-460.6l142.4,82.3v296.1l-142.4,82.2ZM76.7,304.4L476.1,78.5v165.8l-255.9,140.8-2,1.1-141.4-81.8ZM909.6,304.4L510.3,78.5v165.8l255.9,140.6,2,1.1,141.4-81.7Z" />
		<path id="path52" class="cls-3" d="M476.1,828.7l-239.4-131.7v-260.7l239.4,138.2v254.2ZM510.3,828.7l239.4-131.6v-260.9l-239.4,138.2v254.2ZM252.8,406.1l240.3-132.1,240.3,132.1-240.3,138.7-240.3-138.7Z" />
	</g>
</svg>
