<?xml version="1.0" encoding="UTF-8"?>
<svg xmlns="http://www.w3.org/2000/svg" version="1.1" viewBox="0 0 617.5 656.7">
	<g>
		<path fill="white" d="M450,656.8v-166.7c0-14.7-3.3-28.7-9-41.3,13.8-2.8,27.5-6,41.2-10,42.1-12.4,102.6-64,120.4-114.4,19.8-55.9,19.8-112.7,0-168.6h0c-3.6-10.1-8.9-20.2-16.6-31.2,14.1-52.6,4.2-96.5,3.7-98.6l-6.1-26.1-26.8.3c-2.5,0-58,1.1-112.1,32.6-62.6-12.2-126.9-12.2-189.5,0C201.2,1.4,145.7.3,143.2.3l-26.8-.3-6.1,26.1c-.5,2.1-10.4,46,3.8,98.6-7.7,10.9-13.1,21.1-16.6,31.1-19.8,55.9-19.8,112.7,0,168.6,17.8,50.4,78.3,101.9,120.4,114.4,13.7,4.1,27.4,7.2,41.2,10-6,13-9,27.1-9,41.3v21.3c-1,.6-2.1,1.1-3.1,1.8-4.8,3.5-47.8,32.8-91.7,1.5-15.5-15.8-23.1-27.3-30.4-38.5-16.5-25-30.7-43.1-76.5-66-16.5-8.2-36.5-1.6-44.7,14.9-8.2,16.5-1.6,36.5,14.9,44.7,33.2,16.6,39,25.4,50.6,43,8.6,13,19.2,29.2,40.7,50.7l3.6,3.1c28.2,21.2,57.5,28.7,84.2,28.7,17.9,0,35.6-3.3,52.5-9.5v70.9h200q0-.1,0-.1Z" />
	</g>
</svg>
