<?xml version="1.0" encoding="UTF-8"?>
<svg xmlns="http://www.w3.org/2000/svg" version="1.1" viewBox="0 0 700 583.3">
	<g>
		<g id="_Слой_1" data-name="Слой_1">
			<path fill="white" d="M640.3,5.1s64.8-25.2,59.4,36.1c-1.8,25.3-18,113.6-30.6,209.2l-43.2,283.2s-3.6,41.5-36,48.7c-32.4,7.2-80.9-25.2-89.9-32.5-7.2-5.4-134.9-86.6-179.9-126.3-12.6-10.8-27-32.5,1.8-57.7l188.9-180.4c21.6-21.6,43.2-72.1-46.8-10.8l-251.8,171.3s-28.8,18-82.7,1.8l-116.9-36.1s-43.2-27.1,30.6-54.1C223,172.9,444.3,86.3,640.3,5.1Z" />
		</g>
	</g>
</svg>
