<?xml version="1.0" encoding="UTF-8"?>
<svg xmlns="http://www.w3.org/2000/svg" version="1.1" viewBox="0 0 291.92 290.86">
	<defs>
		<style>
			.cls-1 {
				display: none;
				fill: #fff;
			}
		</style>
	</defs>
	<!-- Generator: Adobe Illustrator 28.7.0, SVG Export Plug-In . SVG Version: 1.2.0 Build 136)  -->
	<g>
		<g id="_Слой_1" data-name="Слой_1">
			<g>
				<path class="cls-1" d="M0,299.4V7.48h291.92v291.92H0ZM260.79,237.99c-28.43-28.31-57.19-56.94-87.63-87.25,29.25-29.07,57.96-57.61,85.11-84.59-9.21-9.47-18.29-18.79-28.41-29.19-27.95,27.98-56.41,56.45-85.97,86.04-28.68-28.73-57.31-57.41-85.05-85.2-9.94,9.57-19.35,18.63-30.66,29.51,28.8,28.71,57.51,57.34,87.22,86.95-28.34,28.26-56.88,56.72-85.05,84.8,9.15,9.38,18.31,18.78,28.91,29.66,28.81-28.93,57.44-57.68,86.71-87.09,28.74,28.77,57.23,57.28,85.86,85.93,9.5-9.71,18.68-19.09,28.96-29.59Z" />
				<path fill="#fff" d="M291.92,252.28c-12.9,13.18-24.42,24.95-36.34,37.13-35.93-35.96-71.68-71.74-107.75-107.85-36.74,36.9-72.67,72.98-108.82,109.29-13.31-13.65-24.81-25.45-36.28-37.23,35.35-35.24,71.16-70.95,106.73-106.42C72.18,110.04,36.14,74.12,0,38.09,14.19,24.43,26.01,13.06,38.48,1.05c34.81,34.87,70.75,70.87,106.74,106.93C182.32,70.85,218.03,35.11,253.11,0c12.7,13.05,24.09,24.75,35.65,36.64-34.07,33.86-70.1,69.67-106.81,106.15,38.2,38.04,74.28,73.96,109.97,109.49Z" />
			</g>
		</g>
	</g>
</svg>
